<svg width="146" height="44" viewBox="0 0 146 44" fill="none" xmlns="http://www.w3.org/2000/svg">
<g clip-path="url(#clip0_1039_106)">
<path d="M55.0001 23.6192V10.0435H56.6425L61.734 17.2777H60.8942L65.9489 10.0435H67.5913V23.6192H65.7849V12.3032L66.4239 12.5037L61.3691 19.6103H61.2228L56.223 12.5037L56.7883 12.3032V23.6192H55.0001ZM74.9273 23.838C73.978 23.838 73.1324 23.6133 72.3906 23.1636C71.6484 22.7143 71.0644 22.0978 70.6388 21.314C70.2131 20.5307 70.0003 19.6531 70.0003 18.6812C70.0003 17.6969 70.2098 16.8225 70.6297 16.0569C71.0491 15.2919 71.6211 14.6877 72.3447 14.2439C73.0683 13.8005 73.8809 13.5786 74.781 13.5786C75.5113 13.5786 76.1589 13.7093 76.7246 13.9704C77.2904 14.232 77.7706 14.5842 78.1661 15.0276C78.5612 15.471 78.8658 15.9749 79.0786 16.54C79.2915 17.105 79.3976 17.691 79.3976 18.2984C79.3976 18.4324 79.3886 18.5809 79.3704 18.745C79.3522 18.909 79.3312 19.0635 79.3063 19.2093H71.2409V17.7516H78.3211L77.5181 18.4078C77.6276 17.7762 77.5669 17.2112 77.3359 16.7131C77.1049 16.2151 76.7639 15.82 76.3138 15.5284C75.8633 15.2372 75.353 15.0914 74.781 15.0914C74.209 15.0914 73.6858 15.2372 73.2118 15.5284C72.7374 15.82 72.3691 16.2365 72.1075 16.7769C71.8459 17.3173 71.7397 17.9585 71.7885 18.6994C71.7397 19.4162 71.8521 20.045 72.1257 20.5854C72.3997 21.1258 72.789 21.5451 73.2941 21.8426C73.7986 22.1406 74.3491 22.2892 74.9455 22.2892C75.6022 22.2892 76.1555 22.1374 76.606 21.8335C77.0561 21.53 77.421 21.1409 77.7008 20.6674L79.1246 21.3961C78.9294 21.8458 78.6286 22.2559 78.2206 22.6264C77.8132 22.9968 77.333 23.2912 76.7792 23.5099C76.2253 23.7286 75.6084 23.838 74.9273 23.838ZM81.6058 23.6192V13.7973H83.2663V15.8018L83.0296 15.4919C83.273 14.8727 83.6618 14.3988 84.1975 14.0707C84.7326 13.7426 85.3343 13.5786 86.0039 13.5786C86.77 13.5786 87.4606 13.7914 88.0752 14.2165C88.6893 14.6421 89.1121 15.2008 89.3431 15.8929L88.8686 15.9112C89.124 15.1461 89.5559 14.566 90.1647 14.1709C90.7726 13.7764 91.4479 13.5786 92.1902 13.5786C92.8712 13.5786 93.4886 13.7367 94.0425 14.0525C94.5953 14.3687 95.0368 14.8061 95.3653 15.3643C95.6939 15.9235 95.8579 16.5555 95.8579 17.2595V23.6192H94.1424V17.8063C94.1424 17.2595 94.0453 16.7983 93.8507 16.4215C93.656 16.0451 93.3911 15.7503 93.0568 15.5375C92.722 15.3252 92.3298 15.219 91.8798 15.219C91.4417 15.219 91.0495 15.3252 90.7028 15.5375C90.356 15.7503 90.0825 16.0479 89.8816 16.4306C89.6807 16.8134 89.5803 17.2718 89.5803 17.8063V23.6192H87.8653V17.8063C87.8653 17.2595 87.7677 16.7983 87.573 16.4215C87.3784 16.0451 87.1134 15.7503 86.7791 15.5375C86.4448 15.3252 86.0522 15.219 85.6021 15.219C85.164 15.219 84.7723 15.3252 84.4256 15.5375C84.0789 15.7503 83.8048 16.0479 83.6039 16.4306C83.4031 16.8134 83.3031 17.2718 83.3031 17.8063V23.6192H81.6058ZM103.358 23.838C102.567 23.838 101.846 23.6616 101.196 23.3094C100.544 22.9572 100.043 22.4591 99.6902 21.8153L99.927 21.5237V23.6192H98.2665V10.0575H99.9638V15.9112L99.7079 15.4919C100.073 14.9091 100.572 14.4443 101.205 14.098C101.837 13.7517 102.561 13.5786 103.376 13.5786C104.301 13.5786 105.131 13.8037 105.867 14.2529C106.603 14.7027 107.184 15.3129 107.61 16.0843C108.035 16.8557 108.249 17.7334 108.249 18.7176C108.249 19.6773 108.035 20.5458 107.61 21.3232C107.184 22.101 106.603 22.7143 105.867 23.1636C105.131 23.6133 104.294 23.838 103.358 23.838ZM103.23 22.198C103.851 22.198 104.404 22.0463 104.891 21.7424C105.377 21.4389 105.757 21.0224 106.032 20.4943C106.305 19.9657 106.442 19.3733 106.442 18.7176C106.442 18.0373 106.305 17.439 106.032 16.9227C105.757 16.4065 105.377 15.9932 104.891 15.6833C104.404 15.3735 103.851 15.219 103.23 15.219C102.61 15.219 102.053 15.3707 101.56 15.6742C101.068 15.9781 100.678 16.3942 100.392 16.9227C100.106 17.4509 99.9638 18.0496 99.9638 18.7176C99.9638 19.3733 100.106 19.9657 100.392 20.4943C100.678 21.0224 101.068 21.4389 101.56 21.7424C102.053 22.0463 102.61 22.198 103.23 22.198ZM110.475 23.6192V13.7973H112.135V15.6013L111.952 15.3466C112.184 14.7879 112.537 14.3715 113.011 14.098C113.486 13.8246 114.063 13.6879 114.745 13.6879H115.347V15.2919H114.489C113.796 15.2919 113.236 15.5074 112.81 15.9385C112.384 16.37 112.171 16.9802 112.171 17.7698V23.6192H110.475ZM119.745 23.838C119.1 23.838 118.531 23.7195 118.038 23.4826C117.546 23.2456 117.159 22.9175 116.879 22.4988C116.6 22.0795 116.46 21.5965 116.46 21.0497C116.46 20.5275 116.572 20.0568 116.797 19.6376C117.022 19.2184 117.375 18.8634 117.856 18.5718C118.336 18.2802 118.942 18.0738 119.672 17.9521L123.321 17.3506V18.7723L120.055 19.3186C119.422 19.428 118.963 19.6285 118.677 19.9201C118.391 20.2118 118.248 20.5704 118.248 20.9951C118.248 21.3961 118.409 21.7305 118.732 21.9976C119.054 22.265 119.459 22.3985 119.946 22.3985C120.565 22.3985 121.104 22.2677 121.56 22.0066C122.016 21.7456 122.375 21.3901 122.637 20.9404C122.898 20.4911 123.029 19.993 123.029 19.4462V16.9501C123.029 16.4156 122.831 15.9813 122.436 15.6469C122.041 15.3129 121.52 15.1461 120.876 15.1461C120.316 15.1461 119.82 15.2887 119.389 15.5739C118.957 15.8597 118.637 16.2393 118.43 16.7131L116.953 15.9476C117.135 15.4983 117.427 15.0946 117.829 14.736C118.23 14.3778 118.698 14.0953 119.233 13.8884C119.769 13.682 120.328 13.5786 120.912 13.5786C121.667 13.5786 122.33 13.7216 122.902 14.0069C123.473 14.2926 123.92 14.6877 124.243 15.1916C124.565 15.6956 124.726 16.2821 124.726 16.9501V23.6192H123.066V21.7606L123.376 21.87C123.169 22.2586 122.889 22.599 122.536 22.8902C122.184 23.1818 121.77 23.4128 121.296 23.5828C120.821 23.7528 120.304 23.838 119.745 23.838ZM127.354 23.6192V13.7973H129.014V15.7106L128.741 15.5466C128.984 14.9273 129.376 14.4443 129.918 14.098C130.459 13.7517 131.095 13.5786 131.825 13.5786C132.531 13.5786 133.159 13.7367 133.714 14.0525C134.267 14.3687 134.705 14.8061 135.027 15.3643C135.349 15.9235 135.511 16.5555 135.511 17.2595V23.6192H133.796V17.8063C133.796 17.2595 133.698 16.7983 133.504 16.4215C133.309 16.0451 133.032 15.7503 132.673 15.5375C132.314 15.3252 131.904 15.219 131.442 15.219C130.979 15.219 130.569 15.3252 130.21 15.5375C129.851 15.7503 129.568 16.0479 129.361 16.4306C129.154 16.8134 129.051 17.2718 129.051 17.8063V23.6192H127.354ZM140.821 23.838C140.176 23.838 139.607 23.7195 139.115 23.4826C138.622 23.2456 138.236 22.9175 137.956 22.4988C137.676 22.0795 137.536 21.5965 137.536 21.0497C137.536 20.5275 137.649 20.0568 137.874 19.6376C138.099 19.2184 138.451 18.8634 138.933 18.5718C139.413 18.2802 140.018 18.0738 140.748 17.9521L144.398 17.3506V18.7723L141.132 19.3186C140.498 19.428 140.039 19.6285 139.753 19.9201C139.468 20.2118 139.325 20.5704 139.325 20.9951C139.325 21.3961 139.486 21.7305 139.808 21.9976C140.13 22.265 140.535 22.3985 141.022 22.3985C141.642 22.3985 142.18 22.2677 142.637 22.0066C143.093 21.7456 143.452 21.3901 143.713 20.9404C143.975 20.4911 144.106 19.993 144.106 19.4462V16.9501C144.106 16.4156 143.908 15.9813 143.512 15.6469C143.117 15.3129 142.597 15.1461 141.952 15.1461C141.393 15.1461 140.897 15.2887 140.465 15.5739C140.033 15.8597 139.714 16.2393 139.507 16.7131L138.029 15.9476C138.211 15.4983 138.504 15.0946 138.905 14.736C139.307 14.3778 139.775 14.0953 140.31 13.8884C140.846 13.682 141.405 13.5786 141.989 13.5786C142.743 13.5786 143.406 13.7216 143.978 14.0069C144.55 14.2926 144.997 14.6877 145.319 15.1916C145.641 15.6956 145.803 16.2821 145.803 16.9501V23.6192H144.142V21.7606L144.453 21.87C144.246 22.2586 143.966 22.599 143.613 22.8902C143.26 23.1818 142.847 23.4128 142.372 23.5828C141.898 23.7528 141.381 23.838 140.821 23.838Z" fill="white"/>
<path d="M25.842 18.153C25.842 19.232 24.9631 20.1096 23.8826 20.1096C22.8021 20.1096 21.9232 19.232 21.9232 18.153C21.9232 17.074 22.8021 16.1961 23.8826 16.1961C24.9631 16.1961 25.842 17.074 25.842 18.153ZM6.77084 5.47723e-06C6.18253 5.47723e-06 5.70393 0.477913 5.70393 1.06541C5.70393 1.65291 6.18253 2.13082 6.77084 2.13082C7.35914 2.13082 7.83774 1.65291 7.83774 1.06541C7.83774 0.477911 7.35914 5.47723e-06 6.77084 5.47723e-06ZM1.06693 24.914C1.65523 24.914 2.13382 24.4361 2.13382 23.8486C2.13382 23.2612 1.65523 22.7833 1.06693 22.7833C0.478629 22.7833 5.48503e-06 23.2612 5.48503e-06 23.8486C5.48503e-06 24.4361 0.478629 24.914 1.06693 24.914ZM1.06693 11.3916C0.478629 11.3916 1.82834e-06 11.8696 1.82834e-06 12.4571C1.82834e-06 13.0445 0.478624 13.5224 1.06693 13.5224C1.65523 13.5224 2.13382 13.0445 2.13382 12.4571C2.13382 11.8696 1.65523 11.3916 1.06693 11.3916ZM1.06693 17.0874C0.478629 17.0874 3.65669e-06 17.5653 3.65669e-06 18.1528C3.65669e-06 18.7404 0.478629 19.2182 1.06693 19.2182C1.65523 19.2182 2.13382 18.7403 2.13382 18.1528C2.13382 17.5653 1.65523 17.0874 1.06693 17.0874ZM1.06693 30.6098C1.65523 30.6098 2.13382 30.1319 2.13382 29.5444C2.13382 28.957 1.65523 28.4791 1.06693 28.4791C0.478629 28.4791 5.48503e-06 28.957 5.48503e-06 29.5444C5.48503e-06 30.1319 0.478629 30.6098 1.06693 30.6098ZM1.06693 36.3056C1.65523 36.3056 2.13382 35.8277 2.13382 35.2403C2.13382 34.6528 1.65523 34.1748 1.06693 34.1748C0.478629 34.1748 5.48503e-06 34.6528 5.48503e-06 35.2403C5.48503e-06 35.8277 0.478629 36.3056 1.06693 36.3056ZM1.06693 5.69585C0.478624 5.69585 0 6.17377 0 6.76117C0 7.34872 0.478624 7.8266 1.06693 7.8266C1.65523 7.8266 2.13381 7.34872 2.13381 6.76117C2.13381 6.17377 1.65523 5.69585 1.06693 5.69585ZM6.77084 4.80466C5.6903 4.80466 4.81145 5.68231 4.81145 6.76127C4.81145 7.84023 5.6903 8.71788 6.77084 8.71788C7.85132 8.71788 8.73022 7.84023 8.73022 6.76127C8.73022 5.68231 7.85132 4.80466 6.77084 4.80466ZM12.4748 21.0007C10.8997 21.0007 9.6228 22.2758 9.6228 23.8486C9.6228 25.4215 10.8997 26.6965 12.4748 26.6965C14.0499 26.6965 15.3267 25.4215 15.3267 23.8486C15.3267 22.2758 14.0499 21.0007 12.4748 21.0007ZM12.4748 9.60912C10.8997 9.60912 9.6228 10.8842 9.6228 12.457C9.6228 14.0299 10.8997 15.3049 12.4748 15.3049C14.0499 15.3049 15.3267 14.0299 15.3267 12.457C15.3267 10.8842 14.0499 9.60912 12.4748 9.60912ZM12.4748 3.91331C10.8997 3.91331 9.6228 5.18837 9.6228 6.76122C9.6228 8.33408 10.8997 9.60912 12.4748 9.60912C14.0499 9.60912 15.3267 8.33408 15.3267 6.76122C15.3267 5.18837 14.0499 3.91331 12.4748 3.91331ZM12.4748 15.3049C10.8997 15.3049 9.6228 16.58 9.6228 18.1528C9.6228 19.7257 10.8997 21.0007 12.4748 21.0007C14.0499 21.0007 15.3267 19.7257 15.3267 18.1528C15.3267 16.58 14.0499 15.3049 12.4748 15.3049ZM12.4748 32.3923C10.8997 32.3923 9.6228 33.6674 9.6228 35.2402C9.6228 36.8131 10.8997 38.0882 12.4748 38.0882C14.0499 38.0882 15.3267 36.8131 15.3267 35.2402C15.3267 33.6674 14.0499 32.3923 12.4748 32.3923ZM12.4748 26.6965C10.8997 26.6965 9.6228 27.9716 9.6228 29.5444C9.6228 31.1173 10.8997 32.3923 12.4748 32.3923C14.0499 32.3923 15.3267 31.1173 15.3267 29.5444C15.3267 27.9716 14.0499 26.6965 12.4748 26.6965ZM6.77084 21.0007C5.19573 21.0007 3.91888 22.2758 3.91888 23.8486C3.91888 25.4215 5.19573 26.6965 6.77084 26.6965C8.34594 26.6965 9.6228 25.4215 9.6228 23.8486C9.6228 22.2758 8.34594 21.0007 6.77084 21.0007ZM6.77084 9.60912C5.19573 9.60912 3.91888 10.8842 3.91888 12.457C3.91888 14.0299 5.19573 15.3049 6.77084 15.3049C8.34594 15.3049 9.6228 14.0299 9.6228 12.457C9.6228 10.8842 8.34594 9.60912 6.77084 9.60912ZM6.77084 15.3049C5.19573 15.3049 3.91888 16.58 3.91888 18.1528C3.91888 19.7257 5.19573 21.0007 6.77084 21.0007C8.34594 21.0007 9.6228 19.7257 9.6228 18.1528C9.6228 16.58 8.34594 15.3049 6.77084 15.3049ZM6.77084 26.6965C5.19573 26.6965 3.91888 27.9716 3.91888 29.5444C3.91888 31.1173 5.19573 32.3923 6.77084 32.3923C8.34594 32.3923 9.6228 31.1173 9.6228 29.5444C9.6228 27.9716 8.34594 26.6965 6.77084 26.6965ZM6.77084 32.3923C5.19573 32.3923 3.91888 33.6674 3.91888 35.2402C3.91888 36.8131 5.19573 38.0882 6.77084 38.0882C8.34594 38.0882 9.6228 36.8131 9.6228 35.2402C9.6228 33.6674 8.34594 32.3923 6.77084 32.3923ZM6.77084 39.0522C5.72899 39.0522 4.88438 39.8957 4.88438 40.9361C4.88438 41.9764 5.72899 42.8198 6.77084 42.8198C7.81273 42.8198 8.65734 41.9764 8.65734 40.9361C8.65734 39.8957 7.81273 39.0522 6.77084 39.0522ZM18.1787 15.3049C16.6036 15.3049 15.3267 16.58 15.3267 18.1528C15.3267 19.7257 16.6036 21.0007 18.1787 21.0007C19.7538 21.0007 21.0307 19.7257 21.0307 18.1528C21.0307 16.58 19.7538 15.3049 18.1787 15.3049ZM23.8826 21.0007C22.3075 21.0007 21.0307 22.2758 21.0307 23.8486C21.0307 25.4215 22.3075 26.6965 23.8826 26.6965C25.4577 26.6965 26.7346 25.4215 26.7346 23.8486C26.7346 22.2758 25.4577 21.0007 23.8826 21.0007ZM18.1787 9.60912C16.6036 9.60912 15.3267 10.8842 15.3267 12.457C15.3267 14.0299 16.6036 15.3049 18.1787 15.3049C19.7538 15.3049 21.0307 14.0299 21.0307 12.457C21.0307 10.8842 19.7538 9.60912 18.1787 9.60912ZM23.8826 26.6965C22.3075 26.6965 21.0307 27.9716 21.0307 29.5444C21.0307 31.1173 22.3075 32.3923 23.8826 32.3923C25.4577 32.3923 26.7346 31.1173 26.7346 29.5444C26.7346 27.9716 25.4577 26.6965 23.8826 26.6965ZM18.1787 21.0007C16.6036 21.0007 15.3267 22.2758 15.3267 23.8486C15.3267 25.4215 16.6036 26.6965 18.1787 26.6965C19.7538 26.6965 21.0307 25.4215 21.0307 23.8486C21.0307 22.2758 19.7538 21.0007 18.1787 21.0007ZM35.2905 9.60912C33.7154 9.60912 32.4385 10.8842 32.4385 12.457C32.4385 14.0299 33.7154 15.3049 35.2905 15.3049C36.8656 15.3049 38.1425 14.0299 38.1425 12.457C38.1425 10.8842 36.8656 9.60912 35.2905 9.60912ZM29.5866 15.3049C28.0115 15.3049 26.7346 16.58 26.7346 18.1528C26.7346 19.7257 28.0115 21.0007 29.5866 21.0007C31.1617 21.0007 32.4385 19.7257 32.4385 18.1528C32.4385 16.58 31.1617 15.3049 29.5866 15.3049ZM40.9944 9.60912C39.4193 9.60912 38.1425 10.8842 38.1425 12.457C38.1425 14.0299 39.4193 15.3049 40.9944 15.3049C42.5695 15.3049 43.8464 14.0299 43.8464 12.457C43.8464 10.8842 42.5695 9.60912 40.9944 9.60912ZM40.9944 15.3049C39.4193 15.3049 38.1425 16.58 38.1425 18.1528C38.1425 19.7257 39.4193 21.0007 40.9944 21.0007C42.5695 21.0007 43.8464 19.7257 43.8464 18.1528C43.8464 16.58 42.5695 15.3049 40.9944 15.3049ZM40.9944 3.9133C39.4193 3.9133 38.1425 5.18837 38.1425 6.76122C38.1425 8.33408 39.4193 9.60912 40.9944 9.60912C42.5695 9.60912 43.8464 8.33408 43.8464 6.76122C43.8464 5.18837 42.5695 3.9133 40.9944 3.9133ZM29.5866 9.60912C28.0115 9.60912 26.7346 10.8842 26.7346 12.457C26.7346 14.0299 28.0115 15.3049 29.5866 15.3049C31.1617 15.3049 32.4385 14.0299 32.4385 12.457C32.4385 10.8842 31.1617 9.60912 29.5866 9.60912ZM35.2905 15.3049C33.7154 15.3049 32.4385 16.58 32.4385 18.1528C32.4385 19.7257 33.7154 21.0007 35.2905 21.0007C36.8656 21.0007 38.1425 19.7257 38.1425 18.1528C38.1425 16.58 36.8656 15.3049 35.2905 15.3049ZM40.9944 32.3923C39.4193 32.3923 38.1425 33.6674 38.1425 35.2402C38.1425 36.8131 39.4193 38.0881 40.9944 38.0881C42.5695 38.0881 43.8464 36.8131 43.8464 35.2402C43.8464 33.6674 42.5695 32.3923 40.9944 32.3923ZM12.4748 38.0882C10.8997 38.0882 9.6228 39.3632 9.6228 40.9361C9.6228 42.5089 10.8997 43.784 12.4748 43.784C14.0499 43.784 15.3267 42.5089 15.3267 40.9361C15.3267 39.3632 14.0499 38.0882 12.4748 38.0882ZM40.9944 38.0881C39.4193 38.0881 38.1425 39.3632 38.1425 40.9361C38.1425 42.5089 39.4193 43.784 40.9944 43.784C42.5695 43.784 43.8464 42.5089 43.8464 40.9361C43.8464 39.3632 42.5695 38.0881 40.9944 38.0881ZM33.3312 6.76127C33.3312 7.84023 34.21 8.71784 35.2906 8.71784C36.3711 8.71784 37.25 7.84023 37.25 6.76127C37.25 5.68231 36.3711 4.80466 35.2906 4.80466C34.21 4.80466 33.3312 5.68231 33.3312 6.76127ZM29.5866 5.69585C28.9983 5.69585 28.5197 6.17377 28.5197 6.76117C28.5197 7.34867 28.9983 7.8266 29.5866 7.8266C30.1749 7.8266 30.6535 7.34867 30.6535 6.76117C30.6535 6.17377 30.1749 5.69585 29.5866 5.69585ZM35.2905 0C34.7022 0 34.2236 0.477907 34.2236 1.06541C34.2236 1.65291 34.7022 2.13081 35.2905 2.13081C35.8787 2.13081 36.3574 1.65291 36.3574 1.06541C36.3574 0.477906 35.8787 0 35.2905 0ZM33.3312 35.2401C33.3312 36.3191 34.2101 37.197 35.2906 37.197C36.3711 37.197 37.25 36.3191 37.25 35.2401C37.25 34.1611 36.3711 33.2835 35.2906 33.2835C34.2101 33.2835 33.3312 34.1611 33.3312 35.2401ZM37.25 29.5444C37.25 28.4654 36.3711 27.5878 35.2906 27.5878C34.2101 27.5878 33.3312 28.4654 33.3312 29.5444C33.3312 30.6234 34.2101 31.501 35.2906 31.501C36.3711 31.501 37.25 30.6234 37.25 29.5444ZM29.5866 34.1748C28.9983 34.1748 28.5197 34.6528 28.5197 35.2403C28.5197 35.8277 28.9983 36.3056 29.5866 36.3056C30.1749 36.3056 30.6535 35.8277 30.6535 35.2403C30.6535 34.6528 30.1749 34.1748 29.5866 34.1748ZM29.5866 28.479C28.9983 28.479 28.5197 28.957 28.5197 29.5444C28.5197 30.1319 28.9983 30.6098 29.5866 30.6098C30.1749 30.6098 30.6535 30.1319 30.6535 29.5444C30.6535 28.957 30.1749 28.479 29.5866 28.479ZM18.1787 28.479C17.5904 28.479 17.1118 28.957 17.1118 29.5444C17.1118 30.1319 17.5904 30.6098 18.1787 30.6098C18.767 30.6098 19.2456 30.1319 19.2456 29.5444C19.2456 28.957 18.767 28.479 18.1787 28.479ZM29.5866 21.0007C28.0115 21.0007 26.7346 22.2758 26.7346 23.8486C26.7346 25.4215 28.0115 26.6965 29.5866 26.6965C31.1617 26.6965 32.4385 25.4215 32.4385 23.8486C32.4385 22.2758 31.1617 21.0007 29.5866 21.0007ZM35.2905 21.0007C33.7154 21.0007 32.4385 22.2758 32.4385 23.8486C32.4385 25.4215 33.7154 26.6965 35.2905 26.6965C36.8656 26.6965 38.1425 25.4215 38.1425 23.8486C38.1425 22.2758 36.8656 21.0007 35.2905 21.0007ZM40.9944 21.0007C39.4193 21.0007 38.1425 22.2758 38.1425 23.8486C38.1425 25.4215 39.4193 26.6965 40.9944 26.6965C42.5695 26.6965 43.8464 25.4215 43.8464 23.8486C43.8464 22.2758 42.5695 21.0007 40.9944 21.0007ZM40.9944 26.6965C39.4193 26.6965 38.1425 27.9716 38.1425 29.5444C38.1425 31.1173 39.4193 32.3923 40.9944 32.3923C42.5695 32.3923 43.8464 31.1173 43.8464 29.5444C43.8464 27.9716 42.5695 26.6965 40.9944 26.6965Z" fill="white"/>
<path d="M54.8374 36.6539V34.7284C55.1602 34.7284 55.3917 34.625 55.5318 34.418C55.672 34.2076 55.7863 33.8727 55.8738 33.4132C55.9336 33.1151 55.9824 32.7942 56.0211 32.4505C56.0598 32.1068 56.0928 31.714 56.1211 31.272C56.1493 30.8266 56.1756 30.3058 56.2 29.7096H59.9562V34.7284H60.5034V36.6539H59.7563V35.3913H55.5792V36.6539H54.8374ZM56.1474 34.7284H59.1881V30.3724H56.9154C56.9049 30.639 56.8891 30.9213 56.8681 31.2194C56.8504 31.5175 56.8279 31.8157 56.7997 32.1138C56.7753 32.4119 56.7452 32.6925 56.7103 32.9555C56.6787 33.2151 56.64 33.443 56.5945 33.6394C56.5419 33.892 56.4841 34.1077 56.4209 34.2865C56.3611 34.4654 56.2703 34.6127 56.1474 34.7284ZM60.8252 35.3913V34.7127C61.0357 34.7513 61.1954 34.7425 61.304 34.6864C61.4164 34.6267 61.4986 34.5285 61.5512 34.3917C61.6038 34.2515 61.6478 34.0779 61.6828 33.8709C61.7392 33.5272 61.7899 33.1484 61.8353 32.7346C61.8812 32.3207 61.9214 31.8648 61.9563 31.3667C61.9951 30.8652 62.0338 30.3128 62.0721 29.7096H65.9335V35.3913H65.1654V30.4514H62.7875C62.7631 30.8231 62.7349 31.1931 62.7034 31.5614C62.6718 31.9297 62.6388 32.2839 62.6034 32.6241C62.5718 32.9608 62.5369 33.2712 62.4982 33.5553C62.4599 33.8394 62.4193 34.0848 62.3772 34.2918C62.3141 34.6039 62.2299 34.8529 62.1247 35.0388C62.0233 35.2247 61.8707 35.3474 61.667 35.4071C61.4637 35.4667 61.183 35.4615 60.8252 35.3913ZM70.9653 35.3913V33.2501H69.6396C69.4851 33.2501 69.3254 33.2449 69.1608 33.2343C68.9992 33.2203 68.8485 33.201 68.7084 33.1765C68.3086 33.0993 67.9681 32.924 67.6878 32.6504C67.4104 32.3733 67.2722 31.991 67.2722 31.5035C67.2722 31.0266 67.4018 30.6442 67.6615 30.3567C67.9207 30.0655 68.2349 29.8761 68.6032 29.7885C68.7715 29.7499 68.9413 29.7271 69.1135 29.7201C69.2885 29.7131 69.4397 29.7096 69.5659 29.7096H71.7387L71.7439 35.3913H70.9653ZM67.088 35.3913L68.6716 33.0081H69.5291L67.9351 35.3913H67.088ZM69.5975 32.5873H70.9653V30.3724H69.5975C69.5133 30.3724 69.3957 30.3759 69.245 30.383C69.0939 30.39 68.9518 30.4128 68.8189 30.4514C68.7031 30.4864 68.5874 30.5478 68.4717 30.6355C68.3593 30.7197 68.2646 30.8336 68.1876 30.9774C68.1101 31.1177 68.0718 31.2896 68.0718 31.493C68.0718 31.7771 68.1488 32.0051 68.3033 32.1769C68.4611 32.3453 68.6572 32.461 68.8925 32.5241C69.0188 32.5522 69.1451 32.5697 69.2713 32.5767C69.3976 32.5838 69.5061 32.5873 69.5975 32.5873ZM77.6036 35.5544C77.0741 35.5509 76.6198 35.4352 76.241 35.2072C75.8622 34.9792 75.5676 34.639 75.3572 34.1866C75.1501 33.7341 75.0382 33.1695 75.0205 32.4926C75.01 32.1945 75.0171 31.87 75.0415 31.5193C75.0659 31.1651 75.1047 30.8284 75.1573 30.5092C75.2099 30.1901 75.273 29.9305 75.3467 29.7306C75.438 29.4711 75.5676 29.2291 75.736 29.0046C75.9077 28.7766 76.1061 28.5908 76.3304 28.447C76.5481 28.2997 76.7934 28.1857 77.067 28.105C77.3439 28.0208 77.6318 27.9559 77.9297 27.9104C78.2315 27.8648 78.5295 27.8244 78.8241 27.7893C79.122 27.7543 79.3975 27.7104 79.6501 27.6578L79.7342 28.3575C79.5415 28.3961 79.3134 28.4312 79.0503 28.4627C78.7873 28.4943 78.5118 28.5329 78.2244 28.5785C77.9369 28.6206 77.6614 28.6784 77.3984 28.7521C77.1354 28.8257 76.9111 28.9222 76.725 29.0414C76.4409 29.2133 76.2219 29.4728 76.0674 29.82C75.9167 30.1673 75.8235 30.5653 75.7886 31.0143C76.0062 30.6741 76.2936 30.418 76.6514 30.2462C77.0124 30.0743 77.4037 29.9884 77.8245 29.9884C78.3367 29.9884 78.7767 30.1059 79.145 30.3409C79.5166 30.5758 79.8026 30.902 80.0025 31.3194C80.2024 31.7368 80.3024 32.2155 80.3024 32.7556C80.3024 33.3203 80.1919 33.813 79.971 34.2339C79.7534 34.6548 79.443 34.981 79.0398 35.2124C78.6366 35.4404 78.1579 35.5544 77.6036 35.5544ZM77.6614 34.8126C78.2578 34.8126 78.7103 34.6267 79.0187 34.255C79.331 33.8832 79.487 33.3887 79.487 32.7714C79.487 32.1401 79.3258 31.6421 79.003 31.2773C78.684 30.9125 78.233 30.7302 77.6509 30.7302C77.0689 30.7302 76.6217 30.9125 76.3094 31.2773C75.9971 31.6421 75.8412 32.1401 75.8412 32.7714C75.8412 33.4027 75.9971 33.9007 76.3094 34.2655C76.6217 34.6303 77.0722 34.8126 77.6614 34.8126ZM85.9736 29.7096V35.3913H85.2213V30.9669L82.1069 35.3913H81.4545V29.7096H82.2068V34.0971L85.3265 29.7096H85.9736ZM89.497 35.5491C88.925 35.5491 88.4252 35.4246 87.9976 35.1756C87.5729 34.9231 87.2381 34.5741 86.9928 34.1287L87.6136 33.7341C87.8202 34.0848 88.078 34.3514 88.3869 34.5338C88.6954 34.7161 89.0498 34.8073 89.4496 34.8073C89.8667 34.8073 90.2019 34.7109 90.4544 34.518C90.707 34.3251 90.8332 34.0603 90.8332 33.7236C90.8332 33.4921 90.7787 33.308 90.6701 33.1712C90.5649 33.0344 90.4033 32.9362 90.1861 32.8766C89.9719 32.817 89.7036 32.7872 89.3812 32.7872H88.7078V32.1243H89.3707C89.7634 32.1243 90.079 32.0541 90.3177 31.9139C90.5597 31.7701 90.6807 31.5456 90.6807 31.2405C90.6807 30.9178 90.5597 30.6793 90.3177 30.525C90.079 30.3672 89.793 30.2883 89.4601 30.2883C89.1234 30.2883 88.804 30.3584 88.5027 30.4987C88.2042 30.6355 87.9536 30.8126 87.7504 31.03L87.2558 30.5092C87.5399 30.1971 87.8714 29.9603 88.2501 29.799C88.6323 29.6341 89.055 29.5517 89.518 29.5517C89.8824 29.5517 90.2124 29.6166 90.5071 29.7464C90.805 29.8727 91.0398 30.0586 91.212 30.304C91.3871 30.5495 91.4751 30.8441 91.4751 31.1879C91.4751 31.5106 91.3961 31.7894 91.2383 32.0243C91.0838 32.2593 90.8648 32.454 90.5807 32.6083L90.5386 32.319C90.784 32.3645 90.9872 32.4628 91.1489 32.6136C91.3101 32.7644 91.4291 32.945 91.5066 33.1554C91.5836 33.3659 91.6224 33.5798 91.6224 33.7973C91.6224 34.1585 91.5277 34.4707 91.3383 34.7337C91.1522 34.9933 90.8978 35.1949 90.5754 35.3387C90.256 35.479 89.8968 35.5491 89.497 35.5491ZM92.7778 35.3913V29.7096H93.5512V32.1769H96.7551V29.7096H97.5284V35.3913H96.7551V32.9187H93.5512V35.3913H92.7778ZM101.404 35.5491C100.849 35.5491 100.369 35.4264 99.9623 35.1809C99.5591 34.9354 99.2449 34.5899 99.0206 34.1445C98.7963 33.6991 98.6839 33.1765 98.6839 32.5767C98.6839 31.956 98.7944 31.4194 99.0153 30.9669C99.2363 30.5145 99.5467 30.1655 99.9465 29.92C100.35 29.6745 100.825 29.5517 101.372 29.5517C101.933 29.5517 102.412 29.6815 102.808 29.941C103.205 30.1971 103.505 30.5653 103.708 31.0458C103.911 31.5263 104.005 32.0998 103.987 32.7661H103.198V32.4926C103.184 31.756 103.024 31.2002 102.719 30.8249C102.417 30.4496 101.975 30.262 101.393 30.262C100.783 30.262 100.315 30.4601 99.9886 30.8564C99.6657 31.2528 99.5046 31.8174 99.5046 32.5504C99.5046 33.2659 99.6657 33.8218 99.9886 34.2181C100.315 34.6109 100.776 34.8073 101.372 34.8073C101.779 34.8073 102.133 34.7144 102.435 34.5285C102.74 34.3391 102.98 34.0673 103.156 33.7131L103.876 33.9919C103.652 34.4864 103.321 34.8705 102.882 35.144C102.447 35.4141 101.954 35.5491 101.404 35.5491ZM99.231 32.7661V32.119H103.571V32.7661H99.231ZM107.511 35.5491C106.94 35.5491 106.456 35.4211 106.059 35.1651C105.663 34.9091 105.361 34.5566 105.154 34.1077C104.951 33.6552 104.846 33.1362 104.839 32.5504C104.846 31.9542 104.954 31.4316 105.165 30.9827C105.375 30.5303 105.678 30.1796 106.075 29.9305C106.471 29.678 106.952 29.5517 107.516 29.5517C108.092 29.5517 108.592 29.692 109.016 29.9726C109.444 30.2532 109.736 30.6373 109.894 31.1247L109.137 31.3667C109.003 31.0266 108.791 30.7635 108.5 30.5776C108.213 30.3882 107.883 30.2935 107.511 30.2935C107.094 30.2935 106.748 30.39 106.475 30.5829C106.201 30.7723 105.998 31.0371 105.864 31.3773C105.731 31.7175 105.663 32.1085 105.659 32.5504C105.666 33.2309 105.824 33.778 106.133 34.1918C106.441 34.6022 106.901 34.8073 107.511 34.8073C107.897 34.8073 108.225 34.7197 108.495 34.5443C108.768 34.3654 108.976 34.1059 109.116 33.7657L109.894 33.9972C109.684 34.5022 109.375 34.888 108.968 35.1546C108.561 35.4176 108.076 35.5491 107.511 35.5491ZM112.565 35.5491C112.137 35.5491 111.777 35.472 111.486 35.3177C111.199 35.1633 110.983 34.9581 110.839 34.7021C110.695 34.4461 110.624 34.1673 110.624 33.8657C110.624 33.557 110.685 33.294 110.808 33.0765C110.934 32.8556 111.104 32.6749 111.318 32.5347C111.535 32.3944 111.786 32.2874 112.07 32.2137C112.358 32.1436 112.675 32.0822 113.023 32.0296C113.373 31.9735 113.715 31.9262 114.048 31.8876C114.385 31.8455 114.68 31.8052 114.932 31.7666L114.659 31.9349C114.669 31.3738 114.56 30.9582 114.333 30.6881C114.104 30.418 113.708 30.283 113.144 30.283C112.754 30.283 112.424 30.3707 112.155 30.546C111.888 30.7214 111.7 30.9985 111.592 31.3773L110.839 31.1563C110.969 30.6478 111.23 30.2532 111.623 29.9726C112.016 29.692 112.526 29.5517 113.154 29.5517C113.673 29.5517 114.113 29.6499 114.475 29.8463C114.839 30.0392 115.097 30.3198 115.248 30.6881C115.318 30.8529 115.364 31.0371 115.385 31.2405C115.406 31.4439 115.416 31.6508 115.416 31.8613V35.3913H114.727V33.9656L114.927 34.0498C114.734 34.5373 114.434 34.9091 114.027 35.1651C113.62 35.4211 113.133 35.5491 112.565 35.5491ZM112.654 34.881C113.015 34.881 113.331 34.8161 113.601 34.6864C113.871 34.5566 114.089 34.3795 114.254 34.155C114.418 33.927 114.525 33.671 114.575 33.3869C114.617 33.2046 114.639 33.0046 114.643 32.7872C114.646 32.5662 114.648 32.4014 114.648 32.2927L114.943 32.4452C114.68 32.4803 114.394 32.5154 114.085 32.5504C113.78 32.5855 113.478 32.6259 113.18 32.6714C112.886 32.717 112.619 32.7714 112.381 32.8345C112.219 32.8801 112.063 32.945 111.913 33.0292C111.761 33.1099 111.637 33.2186 111.539 33.3553C111.444 33.4921 111.397 33.6622 111.397 33.8657C111.397 34.0305 111.437 34.1901 111.518 34.3444C111.602 34.4987 111.735 34.6267 111.918 34.7284C112.103 34.8302 112.349 34.881 112.654 34.881Z" fill="white"/>
</g>
<defs>
<clipPath id="clip0_1039_106">
<rect width="145.87" height="44" fill="white"/>
</clipPath>
</defs>
</svg>
