<svg width="52" height="32" viewBox="0 0 52 32" fill="none" xmlns="http://www.w3.org/2000/svg">
<rect x="0.5" y="0.5" width="51" height="31" rx="15.5" fill="black"/>
<path d="M23.092 19.025H21.073C20.8052 19.025 20.5485 18.9188 20.3592 18.7297C20.1698 18.5406 20.0635 18.2841 20.0635 18.0167V13.9833C20.0635 13.7159 20.1698 13.4594 20.3592 13.2703C20.5485 13.0812 20.8052 12.975 21.073 12.975H23.092L30.4109 8.43743C30.4991 8.26624 30.6458 8.13223 30.8243 8.0596C31.0028 7.98696 31.2015 7.98051 31.3843 8.0414C31.5672 8.10228 31.7222 8.2265 31.8214 8.39159C31.9206 8.55669 31.9574 8.75177 31.9252 8.9416V23.0584C31.9574 23.2482 31.9206 23.4433 31.8214 23.6084C31.7222 23.7735 31.5672 23.8977 31.3843 23.9586C31.2015 24.0195 31.0028 24.013 30.8243 23.9404C30.6458 23.8678 30.4991 23.7338 30.4109 23.5626L23.092 19.025Z" stroke="white" stroke-linecap="round" stroke-linejoin="round"/>
<rect x="0.5" y="0.5" width="51" height="31" rx="15.5" stroke="url(#paint0_angular_1039_114)"/>
<defs>
<radialGradient id="paint0_angular_1039_114" cx="0" cy="0" r="1" gradientUnits="userSpaceOnUse" gradientTransform="translate(26 16) rotate(180) scale(34 55.25)">
<stop offset="0.229167" stop-color="white"/>
<stop offset="1" stop-color="white" stop-opacity="0"/>
</radialGradient>
</defs>
</svg>
