<svg width="303" height="229" viewBox="0 0 303 229" fill="none" xmlns="http://www.w3.org/2000/svg">
<g filter="url(#filter0_f_1_520)">
<path d="M6.5 134.498V98.498H9.875L24.025 128.773L38.1 98.498H41.525V134.473H38.025V106.698L25.2 134.498H22.825L10.025 106.698V134.498H6.5ZM59.966 135.248C57.3327 135.248 55.0493 134.665 53.116 133.498C51.1993 132.331 49.7077 130.69 48.641 128.573C47.5743 126.456 47.041 123.973 47.041 121.123C47.041 118.173 47.566 115.623 48.616 113.473C49.666 111.323 51.141 109.665 53.041 108.498C54.9577 107.331 57.216 106.748 59.816 106.748C62.4827 106.748 64.7577 107.365 66.641 108.598C68.5244 109.815 69.9494 111.565 70.916 113.848C71.8827 116.131 72.3244 118.856 72.241 122.023H68.491V120.723C68.4243 117.223 67.666 114.581 66.216 112.798C64.7827 111.015 62.6827 110.123 59.916 110.123C57.016 110.123 54.791 111.065 53.241 112.948C51.7077 114.831 50.941 117.515 50.941 120.998C50.941 124.398 51.7077 127.04 53.241 128.923C54.791 130.79 56.9827 131.723 59.816 131.723C61.7493 131.723 63.4327 131.281 64.866 130.398C66.316 129.498 67.4577 128.206 68.291 126.523L71.716 127.848C70.6493 130.198 69.0743 132.023 66.991 133.323C64.9243 134.606 62.5827 135.248 59.966 135.248ZM49.641 122.023V118.948H70.266V122.023H49.641ZM109.257 134.498L109.282 116.773C109.282 114.69 108.698 113.056 107.532 111.873C106.382 110.673 104.915 110.073 103.132 110.073C102.115 110.073 101.123 110.306 100.157 110.773C99.19 111.24 98.39 111.99 97.7566 113.023C97.14 114.056 96.8316 115.406 96.8316 117.073L94.6566 116.448C94.6066 114.515 94.9816 112.823 95.7816 111.373C96.5983 109.923 97.715 108.798 99.1316 107.998C100.565 107.181 102.182 106.773 103.982 106.773C106.698 106.773 108.873 107.615 110.507 109.298C112.14 110.965 112.957 113.223 112.957 116.073L112.932 134.498H109.257ZM77.0316 134.498V107.498H80.3316V114.148H80.7316V134.498H77.0316ZM93.1816 134.498L93.2066 117.023C93.2066 114.873 92.6316 113.181 91.4816 111.948C90.3483 110.698 88.8483 110.073 86.9816 110.073C85.115 110.073 83.6066 110.715 82.4566 111.998C81.3066 113.265 80.7316 114.956 80.7316 117.073L78.5316 115.873C78.5316 114.14 78.94 112.59 79.7566 111.223C80.5733 109.84 81.69 108.756 83.1066 107.973C84.5233 107.173 86.1316 106.773 87.9316 106.773C89.6483 106.773 91.1733 107.14 92.5066 107.873C93.8566 108.606 94.915 109.673 95.6816 111.073C96.4483 112.473 96.8316 114.173 96.8316 116.173L96.8066 134.498H93.1816ZM131.564 135.248C129.081 135.248 126.981 134.623 125.264 133.373C123.548 132.106 122.248 130.398 121.364 128.248C120.481 126.081 120.039 123.656 120.039 120.973C120.039 118.24 120.481 115.806 121.364 113.673C122.264 111.523 123.581 109.831 125.314 108.598C127.048 107.365 129.181 106.748 131.714 106.748C134.181 106.748 136.298 107.373 138.064 108.623C139.831 109.873 141.181 111.573 142.114 113.723C143.064 115.873 143.539 118.29 143.539 120.973C143.539 123.673 143.064 126.098 142.114 128.248C141.164 130.398 139.798 132.106 138.014 133.373C136.231 134.623 134.081 135.248 131.564 135.248ZM119.414 134.498V98.498H123.114V114.173H122.714V134.498H119.414ZM131.189 131.823C133.073 131.823 134.639 131.348 135.889 130.398C137.139 129.448 138.073 128.156 138.689 126.523C139.323 124.873 139.639 123.023 139.639 120.973C139.639 118.94 139.331 117.106 138.714 115.473C138.098 113.84 137.156 112.548 135.889 111.598C134.639 110.648 133.048 110.173 131.114 110.173C129.231 110.173 127.664 110.631 126.414 111.548C125.181 112.465 124.256 113.74 123.639 115.373C123.023 116.99 122.714 118.856 122.714 120.973C122.714 123.056 123.023 124.923 123.639 126.573C124.256 128.206 125.189 129.49 126.439 130.423C127.689 131.356 129.273 131.823 131.189 131.823ZM149.029 134.498V107.498H152.329V113.998L151.679 113.148C151.979 112.348 152.371 111.615 152.854 110.948C153.338 110.265 153.863 109.706 154.429 109.273C155.129 108.656 155.946 108.19 156.879 107.873C157.813 107.54 158.754 107.348 159.704 107.298C160.654 107.231 161.521 107.298 162.304 107.498V110.948C161.321 110.698 160.246 110.64 159.079 110.773C157.913 110.906 156.838 111.373 155.854 112.173C154.954 112.873 154.279 113.715 153.829 114.698C153.379 115.665 153.079 116.698 152.929 117.798C152.779 118.881 152.704 119.956 152.704 121.023V134.498H149.029ZM173.746 135.248C171.713 135.248 170.005 134.881 168.621 134.148C167.255 133.415 166.23 132.44 165.546 131.223C164.863 130.006 164.521 128.681 164.521 127.248C164.521 125.781 164.813 124.531 165.396 123.498C165.996 122.448 166.805 121.59 167.821 120.923C168.855 120.256 170.046 119.748 171.396 119.398C172.763 119.065 174.271 118.773 175.921 118.523C177.588 118.256 179.213 118.031 180.796 117.848C182.396 117.648 183.796 117.456 184.996 117.273L183.696 118.073C183.746 115.406 183.23 113.431 182.146 112.148C181.063 110.865 179.18 110.223 176.496 110.223C174.646 110.223 173.08 110.64 171.796 111.473C170.53 112.306 169.638 113.623 169.121 115.423L165.546 114.373C166.163 111.956 167.405 110.081 169.271 108.748C171.138 107.415 173.563 106.748 176.546 106.748C179.013 106.748 181.105 107.215 182.821 108.148C184.555 109.065 185.78 110.398 186.496 112.148C186.83 112.931 187.046 113.806 187.146 114.773C187.246 115.74 187.296 116.723 187.296 117.723V134.498H184.021V127.723L184.971 128.123C184.055 130.44 182.63 132.206 180.696 133.423C178.763 134.64 176.446 135.248 173.746 135.248ZM174.171 132.073C175.888 132.073 177.388 131.765 178.671 131.148C179.955 130.531 180.988 129.69 181.771 128.623C182.555 127.54 183.063 126.323 183.296 124.973C183.496 124.106 183.605 123.156 183.621 122.123C183.638 121.073 183.646 120.29 183.646 119.773L185.046 120.498C183.796 120.665 182.438 120.831 180.971 120.998C179.521 121.165 178.088 121.356 176.671 121.573C175.271 121.79 174.005 122.048 172.871 122.348C172.105 122.565 171.363 122.873 170.646 123.273C169.93 123.656 169.338 124.173 168.871 124.823C168.421 125.473 168.196 126.281 168.196 127.248C168.196 128.031 168.388 128.79 168.771 129.523C169.171 130.256 169.805 130.865 170.671 131.348C171.555 131.831 172.721 132.073 174.171 132.073ZM213.305 134.498V120.723C213.305 119.223 213.163 117.848 212.88 116.598C212.596 115.331 212.138 114.231 211.505 113.298C210.888 112.348 210.08 111.615 209.08 111.098C208.096 110.581 206.896 110.323 205.48 110.323C204.18 110.323 203.03 110.548 202.03 110.998C201.046 111.448 200.213 112.098 199.53 112.948C198.863 113.781 198.355 114.798 198.005 115.998C197.655 117.198 197.48 118.565 197.48 120.098L194.88 119.523C194.88 116.756 195.363 114.431 196.33 112.548C197.296 110.665 198.63 109.24 200.33 108.273C202.03 107.306 203.98 106.823 206.18 106.823C207.796 106.823 209.205 107.073 210.405 107.573C211.621 108.073 212.646 108.748 213.48 109.598C214.33 110.448 215.013 111.423 215.53 112.523C216.046 113.606 216.421 114.765 216.655 115.998C216.888 117.215 217.005 118.431 217.005 119.648V134.498H213.305ZM193.78 134.498V107.498H197.105V114.148H197.48V134.498H193.78ZM231.217 135.248C229.184 135.248 227.476 134.881 226.092 134.148C224.726 133.415 223.701 132.44 223.017 131.223C222.334 130.006 221.992 128.681 221.992 127.248C221.992 125.781 222.284 124.531 222.867 123.498C223.467 122.448 224.276 121.59 225.292 120.923C226.326 120.256 227.517 119.748 228.867 119.398C230.234 119.065 231.742 118.773 233.392 118.523C235.059 118.256 236.684 118.031 238.267 117.848C239.867 117.648 241.267 117.456 242.467 117.273L241.167 118.073C241.217 115.406 240.701 113.431 239.617 112.148C238.534 110.865 236.651 110.223 233.967 110.223C232.117 110.223 230.551 110.64 229.267 111.473C228.001 112.306 227.109 113.623 226.592 115.423L223.017 114.373C223.634 111.956 224.876 110.081 226.742 108.748C228.609 107.415 231.034 106.748 234.017 106.748C236.484 106.748 238.576 107.215 240.292 108.148C242.026 109.065 243.251 110.398 243.967 112.148C244.301 112.931 244.517 113.806 244.617 114.773C244.717 115.74 244.767 116.723 244.767 117.723V134.498H241.492V127.723L242.442 128.123C241.526 130.44 240.101 132.206 238.167 133.423C236.234 134.64 233.917 135.248 231.217 135.248ZM231.642 132.073C233.359 132.073 234.859 131.765 236.142 131.148C237.426 130.531 238.459 129.69 239.242 128.623C240.026 127.54 240.534 126.323 240.767 124.973C240.967 124.106 241.076 123.156 241.092 122.123C241.109 121.073 241.117 120.29 241.117 119.773L242.517 120.498C241.267 120.665 239.909 120.831 238.442 120.998C236.992 121.165 235.559 121.356 234.142 121.573C232.742 121.79 231.476 122.048 230.342 122.348C229.576 122.565 228.834 122.873 228.117 123.273C227.401 123.656 226.809 124.173 226.342 124.823C225.892 125.473 225.667 126.281 225.667 127.248C225.667 128.031 225.859 128.79 226.242 129.523C226.642 130.256 227.276 130.865 228.142 131.348C229.026 131.831 230.192 132.073 231.642 132.073Z" fill="url(#paint0_angular_1_520)"/>
</g>
<mask id="mask0_1_520" style="mask-type:alpha" maskUnits="userSpaceOnUse" x="51" y="60" width="242" height="110">
<path d="M292.571 123.89C300.642 202.238 105.209 154.868 94.6891 159.096C84.1689 163.324 67.9284 147.562 58.415 123.89C48.9016 100.219 49.7178 77.6018 60.238 73.3738C70.7582 69.1458 256.547 27.432 292.571 123.89Z" fill="#5C5C5C"/>
</mask>
<g mask="url(#mask0_1_520)">
<path d="M6.5 134.322V98.3223H9.875L24.025 128.597L38.1 98.3223H41.525V134.297H38.025V106.522L25.2 134.322H22.825L10.025 106.522V134.322H6.5ZM59.966 135.072C57.3327 135.072 55.0493 134.489 53.116 133.322C51.1993 132.156 49.7077 130.514 48.641 128.397C47.5743 126.281 47.041 123.797 47.041 120.947C47.041 117.997 47.566 115.447 48.616 113.297C49.666 111.147 51.141 109.489 53.041 108.322C54.9577 107.156 57.216 106.572 59.816 106.572C62.4827 106.572 64.7577 107.189 66.641 108.422C68.5244 109.639 69.9494 111.389 70.916 113.672C71.8827 115.956 72.3244 118.681 72.241 121.847H68.491V120.547C68.4243 117.047 67.666 114.406 66.216 112.622C64.7827 110.839 62.6827 109.947 59.916 109.947C57.016 109.947 54.791 110.889 53.241 112.772C51.7077 114.656 50.941 117.339 50.941 120.822C50.941 124.222 51.7077 126.864 53.241 128.747C54.791 130.614 56.9827 131.547 59.816 131.547C61.7493 131.547 63.4327 131.106 64.866 130.222C66.316 129.322 67.4577 128.031 68.291 126.347L71.716 127.672C70.6493 130.022 69.0743 131.847 66.991 133.147C64.9243 134.431 62.5827 135.072 59.966 135.072ZM49.641 121.847V118.772H70.266V121.847H49.641ZM109.257 134.322L109.282 116.597C109.282 114.514 108.698 112.881 107.532 111.697C106.382 110.497 104.915 109.897 103.132 109.897C102.115 109.897 101.123 110.131 100.157 110.597C99.19 111.064 98.39 111.814 97.7566 112.847C97.14 113.881 96.8316 115.231 96.8316 116.897L94.6566 116.272C94.6066 114.339 94.9816 112.647 95.7816 111.197C96.5983 109.747 97.715 108.622 99.1316 107.822C100.565 107.006 102.182 106.597 103.982 106.597C106.698 106.597 108.873 107.439 110.507 109.122C112.14 110.789 112.957 113.047 112.957 115.897L112.932 134.322H109.257ZM77.0316 134.322V107.322H80.3316V113.972H80.7316V134.322H77.0316ZM93.1816 134.322L93.2066 116.847C93.2066 114.697 92.6316 113.006 91.4816 111.772C90.3483 110.522 88.8483 109.897 86.9816 109.897C85.115 109.897 83.6066 110.539 82.4566 111.822C81.3066 113.089 80.7316 114.781 80.7316 116.897L78.5316 115.697C78.5316 113.964 78.94 112.414 79.7566 111.047C80.5733 109.664 81.69 108.581 83.1066 107.797C84.5233 106.997 86.1316 106.597 87.9316 106.597C89.6483 106.597 91.1733 106.964 92.5066 107.697C93.8566 108.431 94.915 109.497 95.6816 110.897C96.4483 112.297 96.8316 113.997 96.8316 115.997L96.8066 134.322H93.1816ZM131.564 135.072C129.081 135.072 126.981 134.447 125.264 133.197C123.548 131.931 122.248 130.222 121.364 128.072C120.481 125.906 120.039 123.481 120.039 120.797C120.039 118.064 120.481 115.631 121.364 113.497C122.264 111.347 123.581 109.656 125.314 108.422C127.048 107.189 129.181 106.572 131.714 106.572C134.181 106.572 136.298 107.197 138.064 108.447C139.831 109.697 141.181 111.397 142.114 113.547C143.064 115.697 143.539 118.114 143.539 120.797C143.539 123.497 143.064 125.922 142.114 128.072C141.164 130.222 139.798 131.931 138.014 133.197C136.231 134.447 134.081 135.072 131.564 135.072ZM119.414 134.322V98.3223H123.114V113.997H122.714V134.322H119.414ZM131.189 131.647C133.073 131.647 134.639 131.172 135.889 130.222C137.139 129.272 138.073 127.981 138.689 126.347C139.323 124.697 139.639 122.847 139.639 120.797C139.639 118.764 139.331 116.931 138.714 115.297C138.098 113.664 137.156 112.372 135.889 111.422C134.639 110.472 133.048 109.997 131.114 109.997C129.231 109.997 127.664 110.456 126.414 111.372C125.181 112.289 124.256 113.564 123.639 115.197C123.023 116.814 122.714 118.681 122.714 120.797C122.714 122.881 123.023 124.747 123.639 126.397C124.256 128.031 125.189 129.314 126.439 130.247C127.689 131.181 129.273 131.647 131.189 131.647ZM149.029 134.322V107.322H152.329V113.822L151.679 112.972C151.979 112.172 152.371 111.439 152.854 110.772C153.338 110.089 153.863 109.531 154.429 109.097C155.129 108.481 155.946 108.014 156.879 107.697C157.813 107.364 158.754 107.172 159.704 107.122C160.654 107.056 161.521 107.122 162.304 107.322V110.772C161.321 110.522 160.246 110.464 159.079 110.597C157.913 110.731 156.838 111.197 155.854 111.997C154.954 112.697 154.279 113.539 153.829 114.522C153.379 115.489 153.079 116.522 152.929 117.622C152.779 118.706 152.704 119.781 152.704 120.847V134.322H149.029ZM173.746 135.072C171.713 135.072 170.005 134.706 168.621 133.972C167.255 133.239 166.23 132.264 165.546 131.047C164.863 129.831 164.521 128.506 164.521 127.072C164.521 125.606 164.813 124.356 165.396 123.322C165.996 122.272 166.805 121.414 167.821 120.747C168.855 120.081 170.046 119.572 171.396 119.222C172.763 118.889 174.271 118.597 175.921 118.347C177.588 118.081 179.213 117.856 180.796 117.672C182.396 117.472 183.796 117.281 184.996 117.097L183.696 117.897C183.746 115.231 183.23 113.256 182.146 111.972C181.063 110.689 179.18 110.047 176.496 110.047C174.646 110.047 173.08 110.464 171.796 111.297C170.53 112.131 169.638 113.447 169.121 115.247L165.546 114.197C166.163 111.781 167.405 109.906 169.271 108.572C171.138 107.239 173.563 106.572 176.546 106.572C179.013 106.572 181.105 107.039 182.821 107.972C184.555 108.889 185.78 110.222 186.496 111.972C186.83 112.756 187.046 113.631 187.146 114.597C187.246 115.564 187.296 116.547 187.296 117.547V134.322H184.021V127.547L184.971 127.947C184.055 130.264 182.63 132.031 180.696 133.247C178.763 134.464 176.446 135.072 173.746 135.072ZM174.171 131.897C175.888 131.897 177.388 131.589 178.671 130.972C179.955 130.356 180.988 129.514 181.771 128.447C182.555 127.364 183.063 126.147 183.296 124.797C183.496 123.931 183.605 122.981 183.621 121.947C183.638 120.897 183.646 120.114 183.646 119.597L185.046 120.322C183.796 120.489 182.438 120.656 180.971 120.822C179.521 120.989 178.088 121.181 176.671 121.397C175.271 121.614 174.005 121.872 172.871 122.172C172.105 122.389 171.363 122.697 170.646 123.097C169.93 123.481 169.338 123.997 168.871 124.647C168.421 125.297 168.196 126.106 168.196 127.072C168.196 127.856 168.388 128.614 168.771 129.347C169.171 130.081 169.805 130.689 170.671 131.172C171.555 131.656 172.721 131.897 174.171 131.897ZM213.305 134.322V120.547C213.305 119.047 213.163 117.672 212.88 116.422C212.596 115.156 212.138 114.056 211.505 113.122C210.888 112.172 210.08 111.439 209.08 110.922C208.096 110.406 206.896 110.147 205.48 110.147C204.18 110.147 203.03 110.372 202.03 110.822C201.046 111.272 200.213 111.922 199.53 112.772C198.863 113.606 198.355 114.622 198.005 115.822C197.655 117.022 197.48 118.389 197.48 119.922L194.88 119.347C194.88 116.581 195.363 114.256 196.33 112.372C197.296 110.489 198.63 109.064 200.33 108.097C202.03 107.131 203.98 106.647 206.18 106.647C207.796 106.647 209.205 106.897 210.405 107.397C211.621 107.897 212.646 108.572 213.48 109.422C214.33 110.272 215.013 111.247 215.53 112.347C216.046 113.431 216.421 114.589 216.655 115.822C216.888 117.039 217.005 118.256 217.005 119.472V134.322H213.305ZM193.78 134.322V107.322H197.105V113.972H197.48V134.322H193.78ZM231.217 135.072C229.184 135.072 227.476 134.706 226.092 133.972C224.726 133.239 223.701 132.264 223.017 131.047C222.334 129.831 221.992 128.506 221.992 127.072C221.992 125.606 222.284 124.356 222.867 123.322C223.467 122.272 224.276 121.414 225.292 120.747C226.326 120.081 227.517 119.572 228.867 119.222C230.234 118.889 231.742 118.597 233.392 118.347C235.059 118.081 236.684 117.856 238.267 117.672C239.867 117.472 241.267 117.281 242.467 117.097L241.167 117.897C241.217 115.231 240.701 113.256 239.617 111.972C238.534 110.689 236.651 110.047 233.967 110.047C232.117 110.047 230.551 110.464 229.267 111.297C228.001 112.131 227.109 113.447 226.592 115.247L223.017 114.197C223.634 111.781 224.876 109.906 226.742 108.572C228.609 107.239 231.034 106.572 234.017 106.572C236.484 106.572 238.576 107.039 240.292 107.972C242.026 108.889 243.251 110.222 243.967 111.972C244.301 112.756 244.517 113.631 244.617 114.597C244.717 115.564 244.767 116.547 244.767 117.547V134.322H241.492V127.547L242.442 127.947C241.526 130.264 240.101 132.031 238.167 133.247C236.234 134.464 233.917 135.072 231.217 135.072ZM231.642 131.897C233.359 131.897 234.859 131.589 236.142 130.972C237.426 130.356 238.459 129.514 239.242 128.447C240.026 127.364 240.534 126.147 240.767 124.797C240.967 123.931 241.076 122.981 241.092 121.947C241.109 120.897 241.117 120.114 241.117 119.597L242.517 120.322C241.267 120.489 239.909 120.656 238.442 120.822C236.992 120.989 235.559 121.181 234.142 121.397C232.742 121.614 231.476 121.872 230.342 122.172C229.576 122.389 228.834 122.697 228.117 123.097C227.401 123.481 226.809 123.997 226.342 124.647C225.892 125.297 225.667 126.106 225.667 127.072C225.667 127.856 225.859 128.614 226.242 129.347C226.642 130.081 227.276 130.689 228.142 131.172C229.026 131.656 230.192 131.897 231.642 131.897Z" fill="url(#paint1_angular_1_520)"/>
</g>
<defs>
<filter id="filter0_f_1_520" x="0.988103" y="92.9862" width="249.291" height="47.7738" filterUnits="userSpaceOnUse" color-interpolation-filters="sRGB">
<feFlood flood-opacity="0" result="BackgroundImageFix"/>
<feBlend mode="normal" in="SourceGraphic" in2="BackgroundImageFix" result="shape"/>
<feGaussianBlur stdDeviation="2.75595" result="effect1_foregroundBlur_1_520"/>
</filter>
<radialGradient id="paint0_angular_1_520" cx="0" cy="0" r="1" gradientUnits="userSpaceOnUse" gradientTransform="translate(116.211 119.276) rotate(-90) scale(179.59 234.923)">
<stop stop-color="white"/>
<stop offset="1" stop-color="white" stop-opacity="0"/>
</radialGradient>
<radialGradient id="paint1_angular_1_520" cx="0" cy="0" r="1" gradientUnits="userSpaceOnUse" gradientTransform="translate(116.211 119.1) rotate(-90) scale(179.59 234.923)">
<stop stop-color="white"/>
<stop offset="1" stop-color="white" stop-opacity="0"/>
</radialGradient>
</defs>
</svg>
